<svg width="19" height="19" viewBox="0 0 19 19" fill="none" xmlns="http://www.w3.org/2000/svg">
<path fill-rule="evenodd" clip-rule="evenodd" d="M9.35354 1.67954C10.5987 1.63157 11.8457 1.66497 13.0865 1.77954C13.6885 1.77197 14.2865 1.87746 14.8495 2.09054C15.6263 2.45249 16.2506 3.07676 16.6125 3.85354C16.8251 4.41802 16.9296 5.01744 16.9205 5.62054C16.9205 6.55354 17.0205 6.86454 17.0205 9.35354C17.0685 10.5987 17.0351 11.8457 16.9205 13.0865C16.9281 13.6885 16.8226 14.2865 16.6095 14.8495C16.2476 15.6263 15.6233 16.2506 14.8465 16.6125C14.2835 16.8256 13.6855 16.9311 13.0835 16.9235C12.1505 16.9235 11.8395 17.0235 9.35054 17.0235C8.10629 17.0704 6.86031 17.036 5.62054 16.9205C5.01859 16.9281 4.42057 16.8226 3.85754 16.6095C3.08143 16.2486 2.45725 15.6258 2.09454 14.8505C1.88146 14.2875 1.77597 13.6895 1.78354 13.0875C1.78354 12.1545 1.68354 11.8435 1.68354 9.35454C1.63556 8.10936 1.66897 6.86237 1.78354 5.62154C1.77597 5.01959 1.88146 4.42157 2.09454 3.85854C2.2755 3.47363 2.52105 3.12256 2.82054 2.82054C3.06371 2.45783 3.43351 2.19893 3.85754 2.09454C4.42057 1.88146 5.01859 1.77597 5.62054 1.78354C6.86137 1.66897 8.10836 1.63557 9.35354 1.68354V1.67954ZM9.35354 0.020541C8.07504 -0.0261754 6.79487 0.00722329 5.52054 0.120541C4.73969 0.119644 3.96527 0.26165 3.23554 0.539541C2.60628 0.744808 2.03674 1.10081 1.57654 1.57654C1.10081 2.03674 0.744806 2.60628 0.539539 3.23554C0.21189 3.95047 0.067871 4.73587 0.120539 5.52054C0.00722166 6.79487 -0.026177 8.07504 0.0205394 9.35354C-0.0263443 10.6334 0.00705452 11.9149 0.120539 13.1905C0.118853 13.9698 0.259493 14.7428 0.535539 15.4715C0.740806 16.1008 1.09681 16.6703 1.57254 17.1305C2.03274 17.6063 2.60228 17.9623 3.23154 18.1675C3.96027 18.4436 4.73328 18.5842 5.51254 18.5825C6.78819 18.696 8.06971 18.7294 9.34954 18.6825C10.6294 18.7294 11.9109 18.696 13.1865 18.5825C13.9658 18.5842 14.7388 18.4436 15.4675 18.1675C16.0933 17.9524 16.6617 17.5974 17.1295 17.1295C17.5974 16.6617 17.9524 16.0933 18.1675 15.4675C18.4436 14.7388 18.5842 13.9658 18.5825 13.1865C18.5825 12.1495 18.6825 11.8385 18.6825 9.34954C18.7294 8.06971 18.696 6.78819 18.5825 5.51254C18.5842 4.73328 18.4436 3.96027 18.1675 3.23154C17.9623 2.60228 17.6063 2.03274 17.1305 1.57254C16.6702 1.0984 16.101 0.743803 15.4725 0.539541C14.7438 0.26201 13.9704 0.12001 13.1905 0.120541C11.9149 0.00705354 10.6334 -0.0263453 9.35354 0.020541ZM9.35354 4.58354C8.7243 4.57327 8.09942 4.68963 7.51606 4.92571C6.93269 5.16179 6.40275 5.51276 5.95775 5.95776C5.51276 6.40275 5.16178 6.93269 4.92571 7.51606C4.68963 8.09942 4.57327 8.7243 4.58354 9.35354C4.58354 10.297 4.8633 11.2192 5.38743 12.0036C5.91156 12.788 6.65654 13.3994 7.52814 13.7604C8.39974 14.1215 9.35883 14.2159 10.2841 14.0319C11.2094 13.8478 12.0593 13.3935 12.7264 12.7264C13.3935 12.0593 13.8478 11.2094 14.0319 10.2841C14.2159 9.35883 14.1215 8.39974 13.7604 7.52814C13.3994 6.65654 12.788 5.91157 12.0036 5.38743C11.2192 4.8633 10.297 4.58354 9.35354 4.58354ZM9.35354 12.4645C8.94294 12.472 8.53506 12.3966 8.15424 12.2429C7.77343 12.0892 7.4275 11.8603 7.13712 11.57C6.84673 11.2796 6.61786 10.9337 6.46416 10.5528C6.31045 10.172 6.23508 9.76414 6.24254 9.35354C6.23508 8.94295 6.31045 8.53506 6.46416 8.15425C6.61786 7.77343 6.84673 7.4275 7.13712 7.13712C7.4275 6.84674 7.77343 6.61786 8.15424 6.46416C8.53506 6.31046 8.94294 6.23508 9.35354 6.24254C9.76413 6.23508 10.172 6.31046 10.5528 6.46416C10.9337 6.61786 11.2796 6.84674 11.57 7.13712C11.8603 7.4275 12.0892 7.77343 12.2429 8.15425C12.3966 8.53506 12.472 8.94295 12.4645 9.35354C12.472 9.76414 12.3966 10.172 12.2429 10.5528C12.0892 10.9337 11.8603 11.2796 11.57 11.57C11.2796 11.8603 10.9337 12.0892 10.5528 12.2429C10.172 12.3966 9.76413 12.472 9.35354 12.4645ZM14.3315 3.23454C14.1059 3.23454 13.8853 3.30146 13.6976 3.42683C13.51 3.55221 13.3638 3.73041 13.2774 3.9389C13.191 4.14739 13.1684 4.37681 13.2125 4.59814C13.2565 4.81947 13.3652 5.02278 13.5247 5.18235C13.6843 5.34192 13.8876 5.45059 14.1089 5.49462C14.3303 5.53864 14.5597 5.51605 14.7682 5.42969C14.9767 5.34333 15.1549 5.19708 15.2802 5.00945C15.4056 4.82181 15.4725 4.60121 15.4725 4.37554C15.4699 4.07374 15.3489 3.78503 15.1355 3.57162C14.922 3.3582 14.6333 3.23715 14.3315 3.23454Z" fill="white"/>
</svg>
