<svg width="19" height="16" viewBox="0 0 19 16" fill="none" xmlns="http://www.w3.org/2000/svg">
<path fill-rule="evenodd" clip-rule="evenodd" d="M5.914 15.1411C7.34756 15.1541 8.76935 14.8813 10.0963 14.3386C11.4233 13.796 12.6288 12.9944 13.6425 11.9807C14.6563 10.967 15.4578 9.76141 16.0005 8.43445C16.5431 7.10749 16.8159 5.68571 16.803 4.25214V3.73314C17.5277 3.18163 18.1582 2.51634 18.67 1.76314C17.9746 2.0655 17.2422 2.27464 16.492 2.38514C17.2632 1.90083 17.8479 1.16988 18.151 0.311143C17.4017 0.728233 16.5994 1.04208 15.766 1.24414C15.4152 0.848843 14.9838 0.53328 14.5008 0.318698C14.0178 0.104116 13.4945 -0.00450652 12.966 0.000143214C11.9534 0.0163722 10.9869 0.425837 10.2708 1.14193C9.55469 1.85802 9.14523 2.82457 9.129 3.83714C9.10415 4.11775 9.13821 4.40046 9.229 4.66714C7.70309 4.59343 6.21055 4.19449 4.85136 3.49704C3.49217 2.7996 2.29771 1.81975 1.348 0.623143C1.00663 1.22351 0.827746 1.90252 0.828999 2.59314C0.842687 3.21994 0.999241 3.83534 1.28674 4.39248C1.57423 4.94962 1.98508 5.4338 2.488 5.80814C1.86459 5.79527 1.25594 5.6161 0.724998 5.28914C0.723986 6.17728 1.03491 7.03757 1.6035 7.71984C2.17209 8.40211 2.96223 8.86303 3.836 9.02214C3.49812 9.1119 3.14781 9.14568 2.799 9.12214C2.55267 9.13997 2.30534 9.1059 2.073 9.02214C2.32604 9.79142 2.81061 10.4637 3.4604 10.947C4.11018 11.4303 4.89345 11.7011 5.703 11.7221C4.33988 12.7868 2.66259 13.3702 0.932999 13.3811C0.618619 13.3992 0.303411 13.3654 0 13.2811C1.71603 14.5274 3.79043 15.1826 5.911 15.1481" fill="white"/>
</svg>
